<?xml version="1.0" standalone="no"?>
<!DOCTYPE svg PUBLIC "-//W3C//DTD SVG 20010904//EN"
 "http://www.w3.org/TR/2001/REC-SVG-20010904/DTD/svg10.dtd">
<svg version="1.0" xmlns="http://www.w3.org/2000/svg"
 width="260.000000pt" height="260.000000pt" viewBox="0 0 260.000000 260.000000"
 preserveAspectRatio="xMidYMid meet">
<metadata>
Created by potrace 1.11, written by Peter Selinger 2001-2013
</metadata>
<g transform="translate(0.000000,260.000000) scale(0.100000,-0.100000)"
fill="#000000" stroke="none">
<path d="M653 2220 c-67 -30 -92 -113 -53 -177 80 -133 283 -26 220 115 -32
70 -96 94 -167 62z"/>
<path d="M1083 1839 c-39 -11 -57 -55 -44 -108 13 -50 21 -123 22 -211 2 -122
1 -124 -30 -141 -18 -11 -31 -28 -36 -48 -10 -45 -83 -140 -147 -188 -30 -24
-58 -43 -63 -43 -8 0 1 595 9 637 3 15 -4 33 -19 51 -19 23 -32 29 -59 27 -29
-1 -47 -13 -98 -63 -35 -34 -78 -72 -96 -85 -56 -39 -59 -111 -5 -136 33 -15
43 -14 83 8 l35 18 -2 -285 -2 -286 -73 -59 c-185 -148 -258 -283 -236 -437
26 -173 135 -264 275 -228 62 15 124 77 151 150 33 87 43 166 44 339 l1 160
76 57 c42 30 102 80 134 110 l57 55 1 -69 c1 -97 6 -116 35 -142 31 -27 66
-24 99 9 17 16 20 34 21 126 2 234 45 438 114 547 57 89 98 55 125 -104 3 -14
5 -123 6 -243 0 -119 5 -233 10 -252 16 -56 71 -72 119 -35 22 17 25 26 27
102 7 298 98 586 182 576 51 -6 66 -85 43 -238 -22 -143 -24 -165 -27 -235 -4
-134 33 -222 108 -255 111 -50 235 23 321 189 66 129 84 237 44 265 -51 36
-111 6 -124 -61 -16 -84 -89 -215 -140 -247 -23 -16 -28 -16 -41 -4 -19 20
-22 111 -6 222 7 50 16 116 20 146 25 187 -19 312 -127 358 -45 19 -119 18
-157 -2 -38 -19 -92 -76 -114 -118 l-17 -32 -20 44 c-67 147 -227 169 -331 46
l-25 -29 -15 59 c-19 70 -55 97 -108 83z m-442 -1066 c11 -227 -37 -382 -114
-365 -27 6 -57 74 -57 129 1 65 26 117 95 191 60 65 74 73 76 45z"/>
</g>
</svg>
